<?xml version="1.0" encoding="utf-8"?>
<!-- Generator: Adobe Illustrator 16.0.0, SVG Export Plug-In . SVG Version: 6.00 Build 0)  -->
<!DOCTYPE svg PUBLIC "-//W3C//DTD SVG 1.1//EN" "http://www.w3.org/Graphics/SVG/1.1/DTD/svg11.dtd">
<svg version="1.1" id="Layer_1" xmlns="http://www.w3.org/2000/svg" xmlns:xlink="http://www.w3.org/1999/xlink" x="0px" y="0px"
	 width="26px" height="26px" viewBox="0 0 26 26" enable-background="new 0 0 26 26" xml:space="preserve">
<path fill-rule="evenodd" clip-rule="evenodd" fill="#333333" d="M12.999,0C5.821,0,0,5.82,0,13c0,5.744,3.725,10.617,8.891,12.335
	c0.65,0.119,0.888-0.283,0.888-0.627c0-0.309-0.011-1.127-0.018-2.211c-3.616,0.785-4.379-1.744-4.379-1.744
	c-0.591-1.5-1.443-1.9-1.443-1.9c-1.18-0.807,0.089-0.791,0.089-0.791c1.305,0.092,1.991,1.342,1.991,1.342
	c1.16,1.984,3.042,1.412,3.783,1.08c0.118-0.842,0.454-1.414,0.826-1.738c-2.887-0.33-5.922-1.443-5.922-6.426
	c0-1.419,0.507-2.58,1.338-3.488c-0.134-0.329-0.58-1.651,0.127-3.44c0,0,1.091-0.35,3.575,1.333
	c1.037-0.289,2.149-0.433,3.255-0.438c1.104,0.005,2.216,0.149,3.255,0.438c2.482-1.682,3.57-1.333,3.57-1.333
	c0.711,1.79,0.264,3.111,0.131,3.44c0.832,0.909,1.336,2.069,1.336,3.488c0,4.994-3.041,6.094-5.936,6.414
	c0.467,0.402,0.881,1.195,0.881,2.408c0,1.738-0.015,3.139-0.015,3.566c0,0.348,0.233,0.752,0.894,0.625
	C22.279,23.611,26,18.742,26,13C26,5.82,20.18,0,12.999,0z"/>
</svg>
